<?xml version="1.0" encoding="UTF-8"?>
<svg xmlns="http://www.w3.org/2000/svg" xmlns:xlink="http://www.w3.org/1999/xlink" width="400pt" height="300pt" viewBox="0 0 400 300" version="1.1">
<g id="surface1">
<path style="fill-rule:nonzero;fill:rgb(89.019608%,54.509804%,51.764706%);fill-opacity:1;stroke-width:2;stroke-linecap:butt;stroke-linejoin:miter;stroke:rgb(100%,100%,100%);stroke-opacity:1;stroke-miterlimit:10;" d="M 57.5 10 L 97.5 10 L 97.5 22 L 57.5 22 Z M 57.5 10 "/>
<path style=" stroke:none;fill-rule:nonzero;fill:rgb(40%,40%,40%);fill-opacity:1;" d="M 111.6875 14.148438 C 111.625 13.382812 111.46875 12.914062 111.09375 12.414062 C 110.421875 11.523438 109.34375 11.039062 108.03125 11.039062 C 105.5625 11.039062 104.03125 12.804688 104.03125 15.632812 C 104.03125 18.460938 105.546875 20.210938 107.984375 20.210938 C 110.171875 20.210938 111.609375 18.945312 111.71875 16.945312 L 109.96875 16.945312 C 109.84375 18.054688 109.15625 18.695312 108.03125 18.695312 C 106.640625 18.695312 105.828125 17.570312 105.828125 15.664062 C 105.828125 13.726562 106.6875 12.570312 108.09375 12.570312 C 109.140625 12.570312 109.734375 13.070312 109.96875 14.148438 Z M 116.109375 13.335938 C 114.125 13.335938 112.921875 14.648438 112.921875 16.773438 C 112.921875 18.914062 114.125 20.210938 116.125 20.210938 C 118.109375 20.210938 119.328125 18.914062 119.328125 16.820312 C 119.328125 14.632812 118.140625 13.335938 116.109375 13.335938 Z M 116.125 14.695312 C 117.046875 14.695312 117.640625 15.523438 117.640625 16.804688 C 117.640625 18.007812 117.03125 18.851562 116.125 18.851562 C 115.21875 18.851562 114.59375 18.023438 114.59375 16.773438 C 114.59375 15.523438 115.21875 14.695312 116.125 14.695312 Z M 124.359375 19.929688 L 126.046875 19.929688 L 126.046875 11.179688 L 124.359375 11.179688 L 124.359375 14.289062 C 123.9375 13.648438 123.390625 13.335938 122.578125 13.335938 C 121.03125 13.335938 119.84375 14.835938 119.84375 16.789062 C 119.84375 17.664062 120.109375 18.554688 120.546875 19.179688 C 120.984375 19.804688 121.78125 20.210938 122.578125 20.210938 C 123.390625 20.210938 123.9375 19.914062 124.359375 19.273438 Z M 122.9375 14.742188 C 123.796875 14.742188 124.359375 15.554688 124.359375 16.804688 C 124.359375 17.992188 123.78125 18.804688 122.9375 18.804688 C 122.109375 18.804688 121.53125 17.976562 121.53125 16.789062 C 121.53125 15.570312 122.109375 14.742188 122.9375 14.742188 Z M 128.984375 13.445312 L 127.296875 13.445312 L 127.296875 19.929688 L 128.984375 19.929688 Z M 128.984375 11.179688 L 127.296875 11.179688 L 127.296875 12.679688 L 128.984375 12.679688 Z M 130.25 13.445312 L 130.25 19.929688 L 131.9375 19.929688 L 131.9375 16.039062 C 131.9375 15.273438 132.46875 14.773438 133.296875 14.773438 C 134.015625 14.773438 134.375 15.164062 134.375 15.929688 L 134.375 19.929688 L 136.046875 19.929688 L 136.046875 15.585938 C 136.046875 14.148438 135.265625 13.335938 133.875 13.335938 C 133 13.335938 132.421875 13.648438 131.9375 14.382812 L 131.9375 13.445312 Z M 141.296875 13.445312 L 141.296875 14.445312 C 140.828125 13.695312 140.3125 13.335938 139.625 13.335938 C 139.0625 13.335938 138.421875 13.632812 137.96875 14.101562 C 137.328125 14.773438 136.984375 15.710938 136.984375 16.851562 C 136.984375 18.835938 138.046875 20.210938 139.59375 20.210938 C 140.296875 20.210938 140.71875 19.976562 141.296875 19.273438 L 141.296875 20.148438 C 141.296875 20.929688 140.75 21.460938 139.953125 21.460938 C 139.359375 21.460938 138.984375 21.195312 138.859375 20.710938 L 137.125 20.710938 C 137.140625 21.210938 137.3125 21.554688 137.765625 21.914062 C 138.28125 22.335938 138.984375 22.539062 139.890625 22.539062 C 141.765625 22.539062 142.890625 21.648438 142.890625 20.148438 L 142.890625 13.445312 Z M 139.9375 14.742188 C 140.734375 14.742188 141.328125 15.617188 141.328125 16.820312 C 141.328125 17.992188 140.765625 18.804688 139.921875 18.804688 C 139.1875 18.804688 138.671875 17.992188 138.671875 16.820312 C 138.671875 15.601562 139.1875 14.742188 139.9375 14.742188 Z M 150.5 9.929688 L 151.5 9.929688 L 151.5 10.929688 L 150.5 10.929688 Z M 151.5 9.929688 L 152.5 9.929688 L 152.5 10.929688 L 151.5 10.929688 Z M 152.5 9.929688 L 153.5 9.929688 L 153.5 10.929688 L 152.5 10.929688 Z M 153.5 9.929688 L 154.5 9.929688 L 154.5 10.929688 L 153.5 10.929688 Z M 154.5 9.929688 L 155.5 9.929688 L 155.5 10.929688 L 154.5 10.929688 Z M 155.5 9.929688 L 156.5 9.929688 L 156.5 10.929688 L 155.5 10.929688 Z M 156.5 9.929688 L 157.5 9.929688 L 157.5 10.929688 L 156.5 10.929688 Z M 149.5 10.929688 L 150.5 10.929688 L 150.5 11.929688 L 149.5 11.929688 Z M 150.5 10.929688 L 151.5 10.929688 L 151.5 11.929688 L 150.5 11.929688 Z M 151.5 10.929688 L 152.5 10.929688 L 152.5 11.929688 L 151.5 11.929688 Z M 152.5 10.929688 L 153.5 10.929688 L 153.5 11.929688 L 152.5 11.929688 Z M 153.5 10.929688 L 154.5 10.929688 L 154.5 11.929688 L 153.5 11.929688 Z M 154.5 10.929688 L 155.5 10.929688 L 155.5 11.929688 L 154.5 11.929688 Z M 155.5 10.929688 L 156.5 10.929688 L 156.5 11.929688 L 155.5 11.929688 Z M 156.5 10.929688 L 157.5 10.929688 L 157.5 11.929688 L 156.5 11.929688 Z M 157.5 10.929688 L 158.5 10.929688 L 158.5 11.929688 L 157.5 11.929688 Z M 147.5 11.929688 L 148.5 11.929688 L 148.5 12.929688 L 147.5 12.929688 Z M 148.5 11.929688 L 149.5 11.929688 L 149.5 12.929688 L 148.5 12.929688 Z M 149.5 11.929688 L 150.5 11.929688 L 150.5 12.929688 L 149.5 12.929688 Z M 150.5 11.929688 L 151.5 11.929688 L 151.5 12.929688 L 150.5 12.929688 Z M 151.5 11.929688 L 152.5 11.929688 L 152.5 12.929688 L 151.5 12.929688 Z M 152.5 11.929688 L 153.5 11.929688 L 153.5 12.929688 L 152.5 12.929688 Z M 153.5 11.929688 L 154.5 11.929688 L 154.5 12.929688 L 153.5 12.929688 Z M 154.5 11.929688 L 155.5 11.929688 L 155.5 12.929688 L 154.5 12.929688 Z M 155.5 11.929688 L 156.5 11.929688 L 156.5 12.929688 L 155.5 12.929688 Z M 156.5 11.929688 L 157.5 11.929688 L 157.5 12.929688 L 156.5 12.929688 Z M 157.5 11.929688 L 158.5 11.929688 L 158.5 12.929688 L 157.5 12.929688 Z M 158.5 11.929688 L 159.5 11.929688 L 159.5 12.929688 L 158.5 12.929688 Z M 159.5 11.929688 L 160.5 11.929688 L 160.5 12.929688 L 159.5 12.929688 Z M 147.5 12.929688 L 148.5 12.929688 L 148.5 13.929688 L 147.5 13.929688 Z M 148.5 12.929688 L 149.5 12.929688 L 149.5 13.929688 L 148.5 13.929688 Z M 149.5 12.929688 L 150.5 12.929688 L 150.5 13.929688 L 149.5 13.929688 Z M 150.5 12.929688 L 151.5 12.929688 L 151.5 13.929688 L 150.5 13.929688 Z M 151.5 12.929688 L 152.5 12.929688 L 152.5 13.929688 L 151.5 13.929688 Z M 152.5 12.929688 L 153.5 12.929688 L 153.5 13.929688 L 152.5 13.929688 Z M 153.5 12.929688 L 154.5 12.929688 L 154.5 13.929688 L 153.5 13.929688 Z M 154.5 12.929688 L 155.5 12.929688 L 155.5 13.929688 L 154.5 13.929688 Z M 155.5 12.929688 L 156.5 12.929688 L 156.5 13.929688 L 155.5 13.929688 Z M 156.5 12.929688 L 157.5 12.929688 L 157.5 13.929688 L 156.5 13.929688 Z M 157.5 12.929688 L 158.5 12.929688 L 158.5 13.929688 L 157.5 13.929688 Z M 158.5 12.929688 L 159.5 12.929688 L 159.5 13.929688 L 158.5 13.929688 Z M 159.5 12.929688 L 160.5 12.929688 L 160.5 13.929688 L 159.5 13.929688 Z M 147.5 13.929688 L 148.5 13.929688 L 148.5 14.929688 L 147.5 14.929688 Z M 148.5 13.929688 L 149.5 13.929688 L 149.5 14.929688 L 148.5 14.929688 Z M 149.5 13.929688 L 150.5 13.929688 L 150.5 14.929688 L 149.5 14.929688 Z M 150.5 13.929688 L 151.5 13.929688 L 151.5 14.929688 L 150.5 14.929688 Z M 151.5 13.929688 L 152.5 13.929688 L 152.5 14.929688 L 151.5 14.929688 Z M 152.5 13.929688 L 153.5 13.929688 L 153.5 14.929688 L 152.5 14.929688 Z M 153.5 13.929688 L 154.5 13.929688 L 154.5 14.929688 L 153.5 14.929688 Z M 154.5 13.929688 L 155.5 13.929688 L 155.5 14.929688 L 154.5 14.929688 Z M 155.5 13.929688 L 156.5 13.929688 L 156.5 14.929688 L 155.5 14.929688 Z M 156.5 13.929688 L 157.5 13.929688 L 157.5 14.929688 L 156.5 14.929688 Z M 157.5 13.929688 L 158.5 13.929688 L 158.5 14.929688 L 157.5 14.929688 Z M 158.5 13.929688 L 159.5 13.929688 L 159.5 14.929688 L 158.5 14.929688 Z M 159.5 13.929688 L 160.5 13.929688 L 160.5 14.929688 L 159.5 14.929688 Z M 147.5 14.929688 L 148.5 14.929688 L 148.5 15.929688 L 147.5 15.929688 Z M 148.5 14.929688 L 149.5 14.929688 L 149.5 15.929688 L 148.5 15.929688 Z M 149.5 14.929688 L 150.5 14.929688 L 150.5 15.929688 L 149.5 15.929688 Z M 150.5 14.929688 L 151.5 14.929688 L 151.5 15.929688 L 150.5 15.929688 Z M 151.5 14.929688 L 152.5 14.929688 L 152.5 15.929688 L 151.5 15.929688 Z M 152.5 14.929688 L 153.5 14.929688 L 153.5 15.929688 L 152.5 15.929688 Z M 154.5 14.929688 L 155.5 14.929688 L 155.5 15.929688 L 154.5 15.929688 Z M 155.5 14.929688 L 156.5 14.929688 L 156.5 15.929688 L 155.5 15.929688 Z M 156.5 14.929688 L 157.5 14.929688 L 157.5 15.929688 L 156.5 15.929688 Z M 157.5 14.929688 L 158.5 14.929688 L 158.5 15.929688 L 157.5 15.929688 Z M 158.5 14.929688 L 159.5 14.929688 L 159.5 15.929688 L 158.5 15.929688 Z M 159.5 14.929688 L 160.5 14.929688 L 160.5 15.929688 L 159.5 15.929688 Z M 147.5 15.929688 L 148.5 15.929688 L 148.5 16.929688 L 147.5 16.929688 Z M 148.5 15.929688 L 149.5 15.929688 L 149.5 16.929688 L 148.5 16.929688 Z M 149.5 15.929688 L 150.5 15.929688 L 150.5 16.929688 L 149.5 16.929688 Z M 150.5 15.929688 L 151.5 15.929688 L 151.5 16.929688 L 150.5 16.929688 Z M 151.5 15.929688 L 152.5 15.929688 L 152.5 16.929688 L 151.5 16.929688 Z M 152.5 15.929688 L 153.5 15.929688 L 153.5 16.929688 L 152.5 16.929688 Z M 153.5 15.929688 L 154.5 15.929688 L 154.5 16.929688 L 153.5 16.929688 Z M 154.5 15.929688 L 155.5 15.929688 L 155.5 16.929688 L 154.5 16.929688 Z M 155.5 15.929688 L 156.5 15.929688 L 156.5 16.929688 L 155.5 16.929688 Z M 156.5 15.929688 L 157.5 15.929688 L 157.5 16.929688 L 156.5 16.929688 Z M 157.5 15.929688 L 158.5 15.929688 L 158.5 16.929688 L 157.5 16.929688 Z M 158.5 15.929688 L 159.5 15.929688 L 159.5 16.929688 L 158.5 16.929688 Z M 159.5 15.929688 L 160.5 15.929688 L 160.5 16.929688 L 159.5 16.929688 Z M 147.5 16.929688 L 148.5 16.929688 L 148.5 17.929688 L 147.5 17.929688 Z M 148.5 16.929688 L 149.5 16.929688 L 149.5 17.929688 L 148.5 17.929688 Z M 149.5 16.929688 L 150.5 16.929688 L 150.5 17.929688 L 149.5 17.929688 Z M 150.5 16.929688 L 151.5 16.929688 L 151.5 17.929688 L 150.5 17.929688 Z M 156.5 16.929688 L 157.5 16.929688 L 157.5 17.929688 L 156.5 17.929688 Z M 157.5 16.929688 L 158.5 16.929688 L 158.5 17.929688 L 157.5 17.929688 Z M 158.5 16.929688 L 159.5 16.929688 L 159.5 17.929688 L 158.5 17.929688 Z M 159.5 16.929688 L 160.5 16.929688 L 160.5 17.929688 L 159.5 17.929688 Z M 148.5 17.929688 L 149.5 17.929688 L 149.5 18.929688 L 148.5 18.929688 Z M 149.5 17.929688 L 150.5 17.929688 L 150.5 18.929688 L 149.5 18.929688 Z M 150.5 17.929688 L 151.5 17.929688 L 151.5 18.929688 L 150.5 18.929688 Z M 151.5 17.929688 L 152.5 17.929688 L 152.5 18.929688 L 151.5 18.929688 Z M 152.5 17.929688 L 153.5 17.929688 L 153.5 18.929688 L 152.5 18.929688 Z M 153.5 17.929688 L 154.5 17.929688 L 154.5 18.929688 L 153.5 18.929688 Z M 154.5 17.929688 L 155.5 17.929688 L 155.5 18.929688 L 154.5 18.929688 Z M 155.5 17.929688 L 156.5 17.929688 L 156.5 18.929688 L 155.5 18.929688 Z M 156.5 17.929688 L 157.5 17.929688 L 157.5 18.929688 L 156.5 18.929688 Z M 157.5 17.929688 L 158.5 17.929688 L 158.5 18.929688 L 157.5 18.929688 Z M 158.5 17.929688 L 159.5 17.929688 L 159.5 18.929688 L 158.5 18.929688 Z M 148.5 18.929688 L 149.5 18.929688 L 149.5 19.929688 L 148.5 19.929688 Z M 149.5 18.929688 L 150.5 18.929688 L 150.5 19.929688 L 149.5 19.929688 Z M 150.5 18.929688 L 151.5 18.929688 L 151.5 19.929688 L 150.5 19.929688 Z M 151.5 18.929688 L 152.5 18.929688 L 152.5 19.929688 L 151.5 19.929688 Z M 152.5 18.929688 L 153.5 18.929688 L 153.5 19.929688 L 152.5 19.929688 Z M 153.5 18.929688 L 154.5 18.929688 L 154.5 19.929688 L 153.5 19.929688 Z M 154.5 18.929688 L 155.5 18.929688 L 155.5 19.929688 L 154.5 19.929688 Z M 155.5 18.929688 L 156.5 18.929688 L 156.5 19.929688 L 155.5 19.929688 Z M 156.5 18.929688 L 157.5 18.929688 L 157.5 19.929688 L 156.5 19.929688 Z M 157.5 18.929688 L 158.5 18.929688 L 158.5 19.929688 L 157.5 19.929688 Z M 158.5 18.929688 L 159.5 18.929688 L 159.5 19.929688 L 158.5 19.929688 Z M 149.5 19.929688 L 150.5 19.929688 L 150.5 20.929688 L 149.5 20.929688 Z M 150.5 19.929688 L 151.5 19.929688 L 151.5 20.929688 L 150.5 20.929688 Z M 151.5 19.929688 L 152.5 19.929688 L 152.5 20.929688 L 151.5 20.929688 Z M 152.5 19.929688 L 153.5 19.929688 L 153.5 20.929688 L 152.5 20.929688 Z M 153.5 19.929688 L 154.5 19.929688 L 154.5 20.929688 L 153.5 20.929688 Z M 154.5 19.929688 L 155.5 19.929688 L 155.5 20.929688 L 154.5 20.929688 Z M 155.5 19.929688 L 156.5 19.929688 L 156.5 20.929688 L 155.5 20.929688 Z M 156.5 19.929688 L 157.5 19.929688 L 157.5 20.929688 L 156.5 20.929688 Z M 157.5 19.929688 L 158.5 19.929688 L 158.5 20.929688 L 157.5 20.929688 Z M 151.5 20.929688 L 152.5 20.929688 L 152.5 21.929688 L 151.5 21.929688 Z M 152.5 20.929688 L 153.5 20.929688 L 153.5 21.929688 L 152.5 21.929688 Z M 153.5 20.929688 L 154.5 20.929688 L 154.5 21.929688 L 153.5 21.929688 Z M 154.5 20.929688 L 155.5 20.929688 L 155.5 21.929688 L 154.5 21.929688 Z M 155.5 20.929688 L 156.5 20.929688 L 156.5 21.929688 L 155.5 21.929688 Z M 103.5 8.8125 "/>
<path style="fill-rule:nonzero;fill:rgb(12.54902%,36.862745%,44.313725%);fill-opacity:1;stroke-width:2;stroke-linecap:butt;stroke-linejoin:miter;stroke:rgb(100%,100%,100%);stroke-opacity:1;stroke-miterlimit:10;" d="M 171.5 10 L 211.5 10 L 211.5 22 L 171.5 22 Z M 171.5 10 "/>
<path style=" stroke:none;fill-rule:nonzero;fill:rgb(40%,40%,40%);fill-opacity:1;" d="M 218.421875 19.929688 L 221.84375 19.929688 C 223.171875 19.929688 224.015625 19.617188 224.609375 18.914062 C 225.296875 18.085938 225.671875 16.914062 225.671875 15.554688 C 225.671875 14.195312 225.296875 13.023438 224.609375 12.195312 C 224.015625 11.476562 223.1875 11.179688 221.84375 11.179688 L 218.421875 11.179688 Z M 220.21875 18.429688 L 220.21875 12.679688 L 221.84375 12.679688 C 223.203125 12.679688 223.875 13.632812 223.875 15.554688 C 223.875 17.476562 223.203125 18.429688 221.84375 18.429688 Z M 228.984375 13.445312 L 227.296875 13.445312 L 227.296875 19.929688 L 228.984375 19.929688 Z M 228.984375 11.179688 L 227.296875 11.179688 L 227.296875 12.679688 L 228.984375 12.679688 Z M 230.25 13.445312 L 230.25 19.929688 L 231.9375 19.929688 L 231.9375 16.039062 C 231.9375 15.273438 232.46875 14.773438 233.296875 14.773438 C 234.015625 14.773438 234.375 15.164062 234.375 15.929688 L 234.375 19.929688 L 236.046875 19.929688 L 236.046875 15.585938 C 236.046875 14.148438 235.265625 13.335938 233.875 13.335938 C 233 13.335938 232.421875 13.648438 231.9375 14.382812 L 231.9375 13.445312 Z M 237.25 13.445312 L 237.25 19.929688 L 238.9375 19.929688 L 238.9375 16.039062 C 238.9375 15.273438 239.46875 14.773438 240.296875 14.773438 C 241.015625 14.773438 241.375 15.164062 241.375 15.929688 L 241.375 19.929688 L 243.046875 19.929688 L 243.046875 15.585938 C 243.046875 14.148438 242.265625 13.335938 240.875 13.335938 C 240 13.335938 239.421875 13.648438 238.9375 14.382812 L 238.9375 13.445312 Z M 249.78125 17.210938 C 249.796875 17.070312 249.796875 17.007812 249.796875 16.929688 C 249.796875 16.289062 249.703125 15.679688 249.546875 15.226562 C 249.109375 14.054688 248.078125 13.335938 246.765625 13.335938 C 244.90625 13.335938 243.765625 14.679688 243.765625 16.851562 C 243.765625 18.929688 244.890625 20.210938 246.734375 20.210938 C 248.1875 20.210938 249.359375 19.382812 249.734375 18.101562 L 248.078125 18.101562 C 247.875 18.617188 247.40625 18.914062 246.78125 18.914062 C 246.3125 18.914062 245.921875 18.710938 245.6875 18.351562 C 245.53125 18.117188 245.46875 17.835938 245.4375 17.210938 Z M 245.46875 16.101562 C 245.578125 15.101562 246 14.632812 246.734375 14.632812 C 247.515625 14.632812 247.96875 15.148438 248.046875 16.101562 Z M 251.25 13.445312 L 251.25 19.929688 L 252.9375 19.929688 L 252.9375 16.492188 C 252.9375 15.507812 253.421875 15.007812 254.40625 15.007812 C 254.59375 15.007812 254.71875 15.023438 254.9375 15.054688 L 254.9375 13.351562 C 254.84375 13.335938 254.8125 13.335938 254.734375 13.335938 C 253.96875 13.335938 253.3125 13.851562 252.9375 14.726562 L 252.9375 13.445312 Z M 265.859375 19.929688 L 267.6875 13.445312 L 265.953125 13.445312 L 264.96875 17.992188 L 264 13.445312 L 262.3125 13.445312 L 261.328125 17.992188 L 260.296875 13.445312 L 258.5625 13.445312 L 260.390625 19.929688 L 262.109375 19.929688 L 263.140625 15.351562 L 264.109375 19.929688 Z M 269.984375 13.445312 L 268.296875 13.445312 L 268.296875 19.929688 L 269.984375 19.929688 Z M 269.984375 11.179688 L 268.296875 11.179688 L 268.296875 12.679688 L 269.984375 12.679688 Z M 274.109375 13.585938 L 273.171875 13.585938 L 273.171875 11.835938 L 271.5 11.835938 L 271.5 13.585938 L 270.671875 13.585938 L 270.671875 14.695312 L 271.5 14.695312 L 271.5 18.679688 C 271.5 19.695312 272.03125 20.210938 273.140625 20.210938 C 273.53125 20.210938 273.796875 20.164062 274.109375 20.070312 L 274.109375 18.898438 C 273.9375 18.914062 273.859375 18.929688 273.734375 18.929688 C 273.28125 18.929688 273.171875 18.804688 273.171875 18.226562 L 273.171875 14.695312 L 274.109375 14.695312 Z M 275.296875 11.179688 L 275.296875 19.929688 L 276.984375 19.929688 L 276.984375 16.039062 C 276.984375 15.304688 277.53125 14.773438 278.28125 14.773438 C 278.65625 14.773438 278.921875 14.898438 279.125 15.164062 C 279.28125 15.382812 279.3125 15.554688 279.3125 15.976562 L 279.3125 19.929688 L 280.984375 19.929688 L 280.984375 15.585938 C 280.984375 14.789062 280.78125 14.210938 280.328125 13.835938 C 279.953125 13.523438 279.421875 13.335938 278.875 13.335938 C 278.046875 13.335938 277.453125 13.664062 276.984375 14.382812 L 276.984375 11.179688 Z M 288.25 13.585938 L 287.265625 13.585938 L 287.265625 12.945312 C 287.265625 12.617188 287.40625 12.445312 287.71875 12.445312 C 287.875 12.445312 288.03125 12.460938 288.203125 12.476562 L 288.203125 11.210938 C 287.84375 11.195312 287.484375 11.179688 287.234375 11.179688 C 286.125 11.179688 285.578125 11.710938 285.578125 12.804688 L 285.578125 13.585938 L 284.671875 13.585938 L 284.671875 14.695312 L 285.578125 14.695312 L 285.578125 19.929688 L 287.265625 19.929688 L 287.265625 14.695312 L 288.25 14.695312 Z M 289.25 13.445312 L 289.25 19.929688 L 290.9375 19.929688 L 290.9375 16.492188 C 290.9375 15.507812 291.421875 15.007812 292.40625 15.007812 C 292.59375 15.007812 292.71875 15.023438 292.9375 15.054688 L 292.9375 13.351562 C 292.84375 13.335938 292.8125 13.335938 292.734375 13.335938 C 291.96875 13.335938 291.3125 13.851562 290.9375 14.726562 L 290.9375 13.445312 Z M 295.984375 13.445312 L 294.296875 13.445312 L 294.296875 19.929688 L 295.984375 19.929688 Z M 295.984375 11.179688 L 294.296875 11.179688 L 294.296875 12.679688 L 295.984375 12.679688 Z M 302.78125 17.210938 C 302.796875 17.070312 302.796875 17.007812 302.796875 16.929688 C 302.796875 16.289062 302.703125 15.679688 302.546875 15.226562 C 302.109375 14.054688 301.078125 13.335938 299.765625 13.335938 C 297.90625 13.335938 296.765625 14.679688 296.765625 16.851562 C 296.765625 18.929688 297.890625 20.210938 299.734375 20.210938 C 301.1875 20.210938 302.359375 19.382812 302.734375 18.101562 L 301.078125 18.101562 C 300.875 18.617188 300.40625 18.914062 299.78125 18.914062 C 299.3125 18.914062 298.921875 18.710938 298.6875 18.351562 C 298.53125 18.117188 298.46875 17.835938 298.4375 17.210938 Z M 298.46875 16.101562 C 298.578125 15.101562 299 14.632812 299.734375 14.632812 C 300.515625 14.632812 300.96875 15.148438 301.046875 16.101562 Z M 304.25 13.445312 L 304.25 19.929688 L 305.9375 19.929688 L 305.9375 16.039062 C 305.9375 15.273438 306.46875 14.773438 307.296875 14.773438 C 308.015625 14.773438 308.375 15.164062 308.375 15.929688 L 308.375 19.929688 L 310.046875 19.929688 L 310.046875 15.585938 C 310.046875 14.148438 309.265625 13.335938 307.875 13.335938 C 307 13.335938 306.421875 13.648438 305.9375 14.382812 L 305.9375 13.445312 Z M 315.359375 19.929688 L 317.046875 19.929688 L 317.046875 11.179688 L 315.359375 11.179688 L 315.359375 14.289062 C 314.9375 13.648438 314.390625 13.335938 313.578125 13.335938 C 312.03125 13.335938 310.84375 14.835938 310.84375 16.789062 C 310.84375 17.664062 311.109375 18.554688 311.546875 19.179688 C 311.984375 19.804688 312.78125 20.210938 313.578125 20.210938 C 314.390625 20.210938 314.9375 19.914062 315.359375 19.273438 Z M 313.9375 14.742188 C 314.796875 14.742188 315.359375 15.554688 315.359375 16.804688 C 315.359375 17.992188 314.78125 18.804688 313.9375 18.804688 C 313.109375 18.804688 312.53125 17.976562 312.53125 16.789062 C 312.53125 15.570312 313.109375 14.742188 313.9375 14.742188 Z M 323.5625 15.539062 C 323.53125 14.164062 322.484375 13.335938 320.734375 13.335938 C 319.09375 13.335938 318.078125 14.164062 318.078125 15.507812 C 318.078125 15.929688 318.203125 16.304688 318.4375 16.554688 C 318.65625 16.789062 318.875 16.898438 319.484375 17.101562 L 321.5 17.726562 C 321.921875 17.851562 322.0625 17.992188 322.0625 18.242188 C 322.0625 18.648438 321.59375 18.882812 320.8125 18.882812 C 320.375 18.882812 320.03125 18.820312 319.8125 18.664062 C 319.640625 18.523438 319.5625 18.398438 319.484375 18.039062 L 317.84375 18.039062 C 317.890625 19.476562 318.9375 20.210938 320.90625 20.210938 C 321.8125 20.210938 322.484375 20.007812 322.96875 19.632812 C 323.453125 19.242188 323.734375 18.648438 323.734375 18.007812 C 323.734375 17.164062 323.3125 16.632812 322.46875 16.382812 L 320.34375 15.773438 C 319.875 15.617188 319.75 15.523438 319.75 15.257812 C 319.75 14.898438 320.140625 14.664062 320.734375 14.664062 C 321.53125 14.664062 321.921875 14.945312 321.9375 15.539062 Z M 335.5 8.929688 L 336.5 8.929688 L 336.5 9.929688 L 335.5 9.929688 Z M 333.5 9.929688 L 334.5 9.929688 L 334.5 10.929688 L 333.5 10.929688 Z M 334.5 9.929688 L 335.5 9.929688 L 335.5 10.929688 L 334.5 10.929688 Z M 335.5 9.929688 L 336.5 9.929688 L 336.5 10.929688 L 335.5 10.929688 Z M 331.5 10.929688 L 332.5 10.929688 L 332.5 11.929688 L 331.5 11.929688 Z M 332.5 10.929688 L 333.5 10.929688 L 333.5 11.929688 L 332.5 11.929688 Z M 333.5 10.929688 L 334.5 10.929688 L 334.5 11.929688 L 333.5 11.929688 Z M 334.5 10.929688 L 335.5 10.929688 L 335.5 11.929688 L 334.5 11.929688 Z M 335.5 10.929688 L 336.5 10.929688 L 336.5 11.929688 L 335.5 11.929688 Z M 336.5 10.929688 L 337.5 10.929688 L 337.5 11.929688 L 336.5 11.929688 Z M 330.5 11.929688 L 331.5 11.929688 L 331.5 12.929688 L 330.5 12.929688 Z M 331.5 11.929688 L 332.5 11.929688 L 332.5 12.929688 L 331.5 12.929688 Z M 332.5 11.929688 L 333.5 11.929688 L 333.5 12.929688 L 332.5 12.929688 Z M 333.5 11.929688 L 334.5 11.929688 L 334.5 12.929688 L 333.5 12.929688 Z M 334.5 11.929688 L 335.5 11.929688 L 335.5 12.929688 L 334.5 12.929688 Z M 335.5 11.929688 L 336.5 11.929688 L 336.5 12.929688 L 335.5 12.929688 Z M 336.5 11.929688 L 337.5 11.929688 L 337.5 12.929688 L 336.5 12.929688 Z M 330.5 12.929688 L 331.5 12.929688 L 331.5 13.929688 L 330.5 13.929688 Z M 331.5 12.929688 L 332.5 12.929688 L 332.5 13.929688 L 331.5 13.929688 Z M 332.5 12.929688 L 333.5 12.929688 L 333.5 13.929688 L 332.5 13.929688 Z M 333.5 12.929688 L 334.5 12.929688 L 334.5 13.929688 L 333.5 13.929688 Z M 334.5 12.929688 L 335.5 12.929688 L 335.5 13.929688 L 334.5 13.929688 Z M 335.5 12.929688 L 336.5 12.929688 L 336.5 13.929688 L 335.5 13.929688 Z M 336.5 12.929688 L 337.5 12.929688 L 337.5 13.929688 L 336.5 13.929688 Z M 329.5 13.929688 L 330.5 13.929688 L 330.5 14.929688 L 329.5 14.929688 Z M 330.5 13.929688 L 331.5 13.929688 L 331.5 14.929688 L 330.5 14.929688 Z M 331.5 13.929688 L 332.5 13.929688 L 332.5 14.929688 L 331.5 14.929688 Z M 332.5 13.929688 L 333.5 13.929688 L 333.5 14.929688 L 332.5 14.929688 Z M 333.5 13.929688 L 334.5 13.929688 L 334.5 14.929688 L 333.5 14.929688 Z M 334.5 13.929688 L 335.5 13.929688 L 335.5 14.929688 L 334.5 14.929688 Z M 335.5 13.929688 L 336.5 13.929688 L 336.5 14.929688 L 335.5 14.929688 Z M 336.5 13.929688 L 337.5 13.929688 L 337.5 14.929688 L 336.5 14.929688 Z M 329.5 14.929688 L 330.5 14.929688 L 330.5 15.929688 L 329.5 15.929688 Z M 330.5 14.929688 L 331.5 14.929688 L 331.5 15.929688 L 330.5 15.929688 Z M 331.5 14.929688 L 332.5 14.929688 L 332.5 15.929688 L 331.5 15.929688 Z M 332.5 14.929688 L 333.5 14.929688 L 333.5 15.929688 L 332.5 15.929688 Z M 333.5 14.929688 L 334.5 14.929688 L 334.5 15.929688 L 333.5 15.929688 Z M 334.5 14.929688 L 335.5 14.929688 L 335.5 15.929688 L 334.5 15.929688 Z M 335.5 14.929688 L 336.5 14.929688 L 336.5 15.929688 L 335.5 15.929688 Z M 336.5 14.929688 L 337.5 14.929688 L 337.5 15.929688 L 336.5 15.929688 Z M 337.5 14.929688 L 338.5 14.929688 L 338.5 15.929688 L 337.5 15.929688 Z M 330.5 15.929688 L 331.5 15.929688 L 331.5 16.929688 L 330.5 16.929688 Z M 331.5 15.929688 L 332.5 15.929688 L 332.5 16.929688 L 331.5 16.929688 Z M 332.5 15.929688 L 333.5 15.929688 L 333.5 16.929688 L 332.5 16.929688 Z M 333.5 15.929688 L 334.5 15.929688 L 334.5 16.929688 L 333.5 16.929688 Z M 334.5 15.929688 L 335.5 15.929688 L 335.5 16.929688 L 334.5 16.929688 Z M 335.5 15.929688 L 336.5 15.929688 L 336.5 16.929688 L 335.5 16.929688 Z M 336.5 15.929688 L 337.5 15.929688 L 337.5 16.929688 L 336.5 16.929688 Z M 337.5 15.929688 L 338.5 15.929688 L 338.5 16.929688 L 337.5 16.929688 Z M 331.5 16.929688 L 332.5 16.929688 L 332.5 17.929688 L 331.5 17.929688 Z M 332.5 16.929688 L 333.5 16.929688 L 333.5 17.929688 L 332.5 17.929688 Z M 333.5 16.929688 L 334.5 16.929688 L 334.5 17.929688 L 333.5 17.929688 Z M 334.5 16.929688 L 335.5 16.929688 L 335.5 17.929688 L 334.5 17.929688 Z M 335.5 16.929688 L 336.5 16.929688 L 336.5 17.929688 L 335.5 17.929688 Z M 337.5 16.929688 L 338.5 16.929688 L 338.5 17.929688 L 337.5 17.929688 Z M 338.5 16.929688 L 339.5 16.929688 L 339.5 17.929688 L 338.5 17.929688 Z M 333.5 17.929688 L 334.5 17.929688 L 334.5 18.929688 L 333.5 18.929688 Z M 334.5 17.929688 L 335.5 17.929688 L 335.5 18.929688 L 334.5 18.929688 Z M 335.5 17.929688 L 336.5 17.929688 L 336.5 18.929688 L 335.5 18.929688 Z M 336.5 17.929688 L 337.5 17.929688 L 337.5 18.929688 L 336.5 18.929688 Z M 337.5 17.929688 L 338.5 17.929688 L 338.5 18.929688 L 337.5 18.929688 Z M 338.5 17.929688 L 339.5 17.929688 L 339.5 18.929688 L 338.5 18.929688 Z M 335.5 18.929688 L 336.5 18.929688 L 336.5 19.929688 L 335.5 19.929688 Z M 336.5 18.929688 L 337.5 18.929688 L 337.5 19.929688 L 336.5 19.929688 Z M 337.5 18.929688 L 338.5 18.929688 L 338.5 19.929688 L 337.5 19.929688 Z M 338.5 18.929688 L 339.5 18.929688 L 339.5 19.929688 L 338.5 19.929688 Z M 339.5 18.929688 L 340.5 18.929688 L 340.5 19.929688 L 339.5 19.929688 Z M 337.5 19.929688 L 338.5 19.929688 L 338.5 20.929688 L 337.5 20.929688 Z M 339.5 19.929688 L 340.5 19.929688 L 340.5 20.929688 L 339.5 20.929688 Z M 339.5 20.929688 L 340.5 20.929688 L 340.5 21.929688 L 339.5 21.929688 Z M 217.5 8.8125 "/>
<path style="fill-rule:nonzero;fill:rgb(39.215686%,90.980392%,23.529412%);fill-opacity:1;stroke-width:2;stroke-linecap:butt;stroke-linejoin:miter;stroke:rgb(100%,100%,100%);stroke-opacity:1;stroke-miterlimit:10;" d="M 110.5 32 L 150.5 32 L 150.5 44 L 110.5 44 Z M 110.5 32 "/>
<path style=" stroke:none;fill-rule:nonzero;fill:rgb(40%,40%,40%);fill-opacity:1;" d="M 159.09375 35.117188 L 160.65625 41.929688 L 162.46875 41.929688 L 164.015625 35.117188 L 164.015625 41.929688 L 165.8125 41.929688 L 165.8125 33.179688 L 163.09375 33.179688 L 161.5625 40.148438 L 159.984375 33.179688 L 157.296875 33.179688 L 157.296875 41.929688 L 159.09375 41.929688 Z M 172.78125 41.726562 C 172.5 41.445312 172.40625 41.257812 172.40625 40.929688 L 172.40625 37.335938 C 172.40625 36.007812 171.5 35.335938 169.75 35.335938 C 168 35.335938 167.09375 36.085938 166.984375 37.585938 L 168.59375 37.585938 C 168.6875 36.914062 168.953125 36.695312 169.78125 36.695312 C 170.4375 36.695312 170.765625 36.914062 170.765625 37.351562 C 170.765625 37.554688 170.65625 37.742188 170.46875 37.851562 C 170.25 37.976562 170.25 37.976562 169.421875 38.101562 L 168.75 38.226562 C 167.453125 38.445312 166.84375 39.101562 166.84375 40.257812 C 166.84375 41.429688 167.609375 42.210938 168.796875 42.210938 C 169.53125 42.210938 170.171875 41.898438 170.765625 41.289062 C 170.765625 41.617188 170.8125 41.742188 170.96875 41.929688 L 172.78125 41.929688 Z M 170.765625 39.320312 C 170.765625 40.304688 170.28125 40.851562 169.421875 40.851562 C 168.859375 40.851562 168.515625 40.554688 168.515625 40.070312 C 168.515625 39.570312 168.78125 39.320312 169.46875 39.179688 L 170.046875 39.070312 C 170.5 38.992188 170.5625 38.960938 170.765625 38.867188 Z M 175.890625 37.976562 L 175.890625 33.179688 L 174.203125 33.179688 L 174.203125 41.929688 L 175.890625 41.929688 L 175.890625 39.804688 L 176.5625 39.070312 L 178.109375 41.929688 L 180.078125 41.929688 L 177.71875 37.898438 L 179.921875 35.445312 L 178.015625 35.445312 Z M 182.984375 35.445312 L 181.296875 35.445312 L 181.296875 41.929688 L 182.984375 41.929688 Z M 182.984375 33.179688 L 181.296875 33.179688 L 181.296875 34.679688 L 182.984375 34.679688 Z M 184.25 35.445312 L 184.25 41.929688 L 185.9375 41.929688 L 185.9375 38.039062 C 185.9375 37.273438 186.46875 36.773438 187.296875 36.773438 C 188.015625 36.773438 188.375 37.164062 188.375 37.929688 L 188.375 41.929688 L 190.046875 41.929688 L 190.046875 37.585938 C 190.046875 36.148438 189.265625 35.335938 187.875 35.335938 C 187 35.335938 186.421875 35.648438 185.9375 36.382812 L 185.9375 35.445312 Z M 195.296875 35.445312 L 195.296875 36.445312 C 194.828125 35.695312 194.3125 35.335938 193.625 35.335938 C 193.0625 35.335938 192.421875 35.632812 191.96875 36.101562 C 191.328125 36.773438 190.984375 37.710938 190.984375 38.851562 C 190.984375 40.835938 192.046875 42.210938 193.59375 42.210938 C 194.296875 42.210938 194.71875 41.976562 195.296875 41.273438 L 195.296875 42.148438 C 195.296875 42.929688 194.75 43.460938 193.953125 43.460938 C 193.359375 43.460938 192.984375 43.195312 192.859375 42.710938 L 191.125 42.710938 C 191.140625 43.210938 191.3125 43.554688 191.765625 43.914062 C 192.28125 44.335938 192.984375 44.539062 193.890625 44.539062 C 195.765625 44.539062 196.890625 43.648438 196.890625 42.148438 L 196.890625 35.445312 Z M 193.9375 36.742188 C 194.734375 36.742188 195.328125 37.617188 195.328125 38.820312 C 195.328125 39.992188 194.765625 40.804688 193.921875 40.804688 C 193.1875 40.804688 192.671875 39.992188 192.671875 38.820312 C 192.671875 37.601562 193.1875 36.742188 193.9375 36.742188 Z M 204.25 35.585938 L 203.265625 35.585938 L 203.265625 34.945312 C 203.265625 34.617188 203.40625 34.445312 203.71875 34.445312 C 203.875 34.445312 204.03125 34.460938 204.203125 34.476562 L 204.203125 33.210938 C 203.84375 33.195312 203.484375 33.179688 203.234375 33.179688 C 202.125 33.179688 201.578125 33.710938 201.578125 34.804688 L 201.578125 35.585938 L 200.671875 35.585938 L 200.671875 36.695312 L 201.578125 36.695312 L 201.578125 41.929688 L 203.265625 41.929688 L 203.265625 36.695312 L 204.25 36.695312 Z M 210.78125 41.726562 C 210.5 41.445312 210.40625 41.257812 210.40625 40.929688 L 210.40625 37.335938 C 210.40625 36.007812 209.5 35.335938 207.75 35.335938 C 206 35.335938 205.09375 36.085938 204.984375 37.585938 L 206.59375 37.585938 C 206.6875 36.914062 206.953125 36.695312 207.78125 36.695312 C 208.4375 36.695312 208.765625 36.914062 208.765625 37.351562 C 208.765625 37.554688 208.65625 37.742188 208.46875 37.851562 C 208.25 37.976562 208.25 37.976562 207.421875 38.101562 L 206.75 38.226562 C 205.453125 38.445312 204.84375 39.101562 204.84375 40.257812 C 204.84375 41.429688 205.609375 42.210938 206.796875 42.210938 C 207.53125 42.210938 208.171875 41.898438 208.765625 41.289062 C 208.765625 41.617188 208.8125 41.742188 208.96875 41.929688 L 210.78125 41.929688 Z M 208.765625 39.320312 C 208.765625 40.304688 208.28125 40.851562 207.421875 40.851562 C 206.859375 40.851562 206.515625 40.554688 206.515625 40.070312 C 206.515625 39.570312 206.78125 39.320312 207.46875 39.179688 L 208.046875 39.070312 C 208.5 38.992188 208.5625 38.960938 208.765625 38.867188 Z M 212.25 35.445312 L 212.25 41.929688 L 213.9375 41.929688 L 213.9375 38.039062 C 213.9375 37.273438 214.46875 36.773438 215.296875 36.773438 C 216.015625 36.773438 216.375 37.164062 216.375 37.929688 L 216.375 41.929688 L 218.046875 41.929688 L 218.046875 37.585938 C 218.046875 36.148438 217.265625 35.335938 215.875 35.335938 C 215 35.335938 214.421875 35.648438 213.9375 36.382812 L 213.9375 35.445312 Z M 224.765625 37.867188 C 224.640625 36.289062 223.59375 35.335938 221.96875 35.335938 C 220.03125 35.335938 218.90625 36.617188 218.90625 38.820312 C 218.90625 40.960938 220.03125 42.210938 221.9375 42.210938 C 223.515625 42.210938 224.609375 41.226562 224.765625 39.679688 L 223.15625 39.679688 C 222.953125 40.523438 222.609375 40.851562 221.9375 40.851562 C 221.09375 40.851562 220.59375 40.085938 220.59375 38.820312 C 220.59375 38.195312 220.703125 37.632812 220.90625 37.242188 C 221.109375 36.882812 221.46875 36.695312 221.953125 36.695312 C 222.640625 36.695312 222.96875 37.023438 223.15625 37.867188 Z M 230.234375 35.445312 L 228.890625 40.164062 L 227.453125 35.445312 L 225.609375 35.445312 L 228.015625 42.195312 C 228.015625 42.867188 227.59375 43.320312 226.96875 43.320312 C 226.84375 43.320312 226.734375 43.304688 226.53125 43.242188 L 226.53125 44.507812 C 226.78125 44.539062 226.921875 44.554688 227.125 44.554688 C 227.5625 44.554688 228.046875 44.476562 228.34375 44.351562 C 228.8125 44.164062 229.015625 43.898438 229.296875 43.117188 L 231.953125 35.445312 Z M 240.359375 41.929688 L 242.046875 41.929688 L 242.046875 33.179688 L 240.359375 33.179688 L 240.359375 36.289062 C 239.9375 35.648438 239.390625 35.335938 238.578125 35.335938 C 237.03125 35.335938 235.84375 36.835938 235.84375 38.789062 C 235.84375 39.664062 236.109375 40.554688 236.546875 41.179688 C 236.984375 41.804688 237.78125 42.210938 238.578125 42.210938 C 239.390625 42.210938 239.9375 41.914062 240.359375 41.273438 Z M 238.9375 36.742188 C 239.796875 36.742188 240.359375 37.554688 240.359375 38.804688 C 240.359375 39.992188 239.78125 40.804688 238.9375 40.804688 C 238.109375 40.804688 237.53125 39.976562 237.53125 38.789062 C 237.53125 37.570312 238.109375 36.742188 238.9375 36.742188 Z M 243.25 35.445312 L 243.25 41.929688 L 244.9375 41.929688 L 244.9375 38.492188 C 244.9375 37.507812 245.421875 37.007812 246.40625 37.007812 C 246.59375 37.007812 246.71875 37.023438 246.9375 37.054688 L 246.9375 35.351562 C 246.84375 35.335938 246.8125 35.335938 246.734375 35.335938 C 245.96875 35.335938 245.3125 35.851562 244.9375 36.726562 L 244.9375 35.445312 Z M 249.984375 35.445312 L 248.296875 35.445312 L 248.296875 41.929688 L 249.984375 41.929688 Z M 249.984375 33.179688 L 248.296875 33.179688 L 248.296875 34.679688 L 249.984375 34.679688 Z M 251.25 35.445312 L 251.25 41.929688 L 252.9375 41.929688 L 252.9375 38.039062 C 252.9375 37.273438 253.46875 36.773438 254.296875 36.773438 C 255.015625 36.773438 255.375 37.164062 255.375 37.929688 L 255.375 41.929688 L 257.046875 41.929688 L 257.046875 37.585938 C 257.046875 36.148438 256.265625 35.335938 254.875 35.335938 C 254 35.335938 253.421875 35.648438 252.9375 36.382812 L 252.9375 35.445312 Z M 259.890625 37.976562 L 259.890625 33.179688 L 258.203125 33.179688 L 258.203125 41.929688 L 259.890625 41.929688 L 259.890625 39.804688 L 260.5625 39.070312 L 262.109375 41.929688 L 264.078125 41.929688 L 261.71875 37.898438 L 263.921875 35.445312 L 262.015625 35.445312 Z M 270.5625 37.539062 C 270.53125 36.164062 269.484375 35.335938 267.734375 35.335938 C 266.09375 35.335938 265.078125 36.164062 265.078125 37.507812 C 265.078125 37.929688 265.203125 38.304688 265.4375 38.554688 C 265.65625 38.789062 265.875 38.898438 266.484375 39.101562 L 268.5 39.726562 C 268.921875 39.851562 269.0625 39.992188 269.0625 40.242188 C 269.0625 40.648438 268.59375 40.882812 267.8125 40.882812 C 267.375 40.882812 267.03125 40.820312 266.8125 40.664062 C 266.640625 40.523438 266.5625 40.398438 266.484375 40.039062 L 264.84375 40.039062 C 264.890625 41.476562 265.9375 42.210938 267.90625 42.210938 C 268.8125 42.210938 269.484375 42.007812 269.96875 41.632812 C 270.453125 41.242188 270.734375 40.648438 270.734375 40.007812 C 270.734375 39.164062 270.3125 38.632812 269.46875 38.382812 L 267.34375 37.773438 C 266.875 37.617188 266.75 37.523438 266.75 37.257812 C 266.75 36.898438 267.140625 36.664062 267.734375 36.664062 C 268.53125 36.664062 268.921875 36.945312 268.9375 37.539062 Z M 282.5 30.929688 L 283.5 30.929688 L 283.5 31.929688 L 282.5 31.929688 Z M 279.5 31.929688 L 280.5 31.929688 L 280.5 32.929688 L 279.5 32.929688 Z M 280.5 31.929688 L 281.5 31.929688 L 281.5 32.929688 L 280.5 32.929688 Z M 282.5 31.929688 L 283.5 31.929688 L 283.5 32.929688 L 282.5 32.929688 Z M 283.5 31.929688 L 284.5 31.929688 L 284.5 32.929688 L 283.5 32.929688 Z M 282.5 32.929688 L 283.5 32.929688 L 283.5 33.929688 L 282.5 33.929688 Z M 281.5 33.929688 L 282.5 33.929688 L 282.5 34.929688 L 281.5 34.929688 Z M 282.5 33.929688 L 283.5 33.929688 L 283.5 34.929688 L 282.5 34.929688 Z M 280.5 34.929688 L 281.5 34.929688 L 281.5 35.929688 L 280.5 35.929688 Z M 281.5 34.929688 L 282.5 34.929688 L 282.5 35.929688 L 281.5 35.929688 Z M 282.5 34.929688 L 283.5 34.929688 L 283.5 35.929688 L 282.5 35.929688 Z M 280.5 35.929688 L 281.5 35.929688 L 281.5 36.929688 L 280.5 36.929688 Z M 281.5 35.929688 L 282.5 35.929688 L 282.5 36.929688 L 281.5 36.929688 Z M 282.5 35.929688 L 283.5 35.929688 L 283.5 36.929688 L 282.5 36.929688 Z M 279.5 36.929688 L 280.5 36.929688 L 280.5 37.929688 L 279.5 37.929688 Z M 280.5 36.929688 L 281.5 36.929688 L 281.5 37.929688 L 280.5 37.929688 Z M 281.5 36.929688 L 282.5 36.929688 L 282.5 37.929688 L 281.5 37.929688 Z M 282.5 36.929688 L 283.5 36.929688 L 283.5 37.929688 L 282.5 37.929688 Z M 283.5 36.929688 L 284.5 36.929688 L 284.5 37.929688 L 283.5 37.929688 Z M 279.5 37.929688 L 280.5 37.929688 L 280.5 38.929688 L 279.5 38.929688 Z M 280.5 37.929688 L 281.5 37.929688 L 281.5 38.929688 L 280.5 38.929688 Z M 281.5 37.929688 L 282.5 37.929688 L 282.5 38.929688 L 281.5 38.929688 Z M 282.5 37.929688 L 283.5 37.929688 L 283.5 38.929688 L 282.5 38.929688 Z M 283.5 37.929688 L 284.5 37.929688 L 284.5 38.929688 L 283.5 38.929688 Z M 279.5 38.929688 L 280.5 38.929688 L 280.5 39.929688 L 279.5 39.929688 Z M 280.5 38.929688 L 281.5 38.929688 L 281.5 39.929688 L 280.5 39.929688 Z M 281.5 38.929688 L 282.5 38.929688 L 282.5 39.929688 L 281.5 39.929688 Z M 282.5 38.929688 L 283.5 38.929688 L 283.5 39.929688 L 282.5 39.929688 Z M 283.5 38.929688 L 284.5 38.929688 L 284.5 39.929688 L 283.5 39.929688 Z M 280.5 39.929688 L 281.5 39.929688 L 281.5 40.929688 L 280.5 40.929688 Z M 281.5 39.929688 L 282.5 39.929688 L 282.5 40.929688 L 281.5 40.929688 Z M 282.5 39.929688 L 283.5 39.929688 L 283.5 40.929688 L 282.5 40.929688 Z M 281.5 40.929688 L 282.5 40.929688 L 282.5 41.929688 L 281.5 41.929688 Z M 281.5 41.929688 L 282.5 41.929688 L 282.5 42.929688 L 281.5 42.929688 Z M 281.5 42.929688 L 282.5 42.929688 L 282.5 43.929688 L 281.5 43.929688 Z M 156.5 30.8125 "/>
<path style="fill-rule:nonzero;fill:rgb(89.019608%,54.509804%,51.764706%);fill-opacity:1;stroke-width:2;stroke-linecap:butt;stroke-linejoin:bevel;stroke:rgb(100%,100%,100%);stroke-opacity:1;stroke-miterlimit:10;" d="M 200 55 C 267.378906 55 322 109.621094 322 177 L 200 177 Z M 200 55 "/>
<path style="fill-rule:nonzero;fill:rgb(12.54902%,36.862745%,44.313725%);fill-opacity:1;stroke-width:2;stroke-linecap:butt;stroke-linejoin:bevel;stroke:rgb(100%,100%,100%);stroke-opacity:1;stroke-miterlimit:10;" d="M 322 177 C 322 244.378906 267.378906 299 200 299 C 132.621094 299 78 244.378906 78 177 Z M 322 177 "/>
<path style="fill-rule:nonzero;fill:rgb(39.215686%,90.980392%,23.529412%);fill-opacity:1;stroke-width:2;stroke-linecap:butt;stroke-linejoin:bevel;stroke:rgb(100%,100%,100%);stroke-opacity:1;stroke-miterlimit:10;" d="M 78 177 C 78 109.621094 132.621094 55 200 55 L 200 177 Z M 78 177 "/>
</g>
</svg>
